<?xml version="1.0" standalone="no"?>
<!DOCTYPE svg PUBLIC "-//W3C//DTD SVG 20010904//EN"
 "http://www.w3.org/TR/2001/REC-SVG-20010904/DTD/svg10.dtd">
<svg version="1.0" xmlns="http://www.w3.org/2000/svg"
 width="480.000000pt" height="480.000000pt" viewBox="0 0 480.000000 480.000000"
 preserveAspectRatio="xMidYMid meet">
<metadata>
Created by potrace 1.14, written by Peter Selinger 2001-2017
</metadata>
<g transform="translate(0.000000,480.000000) scale(0.100000,-0.100000)"
fill="#000000" stroke="none">
<path d="M2209 4776 c-2 -2 -38 -6 -79 -10 -107 -9 -250 -34 -360 -64 -52 -14
-109 -26 -127 -27 -18 -1 -44 -10 -59 -20 -14 -9 -36 -18 -49 -19 -12 -2 -46
-15 -76 -29 -30 -15 -64 -28 -76 -30 -11 -2 -27 -8 -35 -15 -8 -6 -32 -19 -53
-28 -47 -19 -171 -100 -205 -132 -13 -13 -38 -31 -54 -39 -16 -8 -44 -31 -61
-49 -18 -19 -38 -34 -44 -34 -6 0 -25 -16 -42 -35 -17 -19 -36 -35 -43 -35 -6
0 -27 -15 -46 -34 -82 -81 -119 -119 -132 -135 -7 -9 -45 -52 -84 -96 -145
-163 -248 -310 -348 -494 -31 -57 -56 -106 -56 -109 0 -3 -12 -35 -26 -71 -27
-67 -72 -215 -80 -261 -3 -14 -7 -33 -10 -42 -3 -10 -7 -29 -10 -43 -2 -14 -6
-37 -9 -52 -3 -16 -8 -46 -11 -68 -3 -22 -7 -51 -10 -65 -26 -130 -25 -562 1
-680 3 -14 10 -58 16 -98 6 -39 16 -72 21 -72 5 0 6 -5 3 -10 -7 -11 9 -74 45
-185 11 -33 20 -66 20 -73 0 -8 9 -27 20 -42 11 -16 23 -43 26 -62 4 -18 12
-40 19 -48 7 -8 17 -30 23 -47 6 -18 22 -48 36 -66 15 -19 26 -41 26 -49 0 -8
13 -32 30 -54 16 -21 30 -48 30 -59 0 -24 85 -145 177 -254 18 -21 33 -43 33
-48 0 -10 18 -32 110 -135 78 -88 92 -101 231 -213 41 -33 76 -63 77 -67 2 -5
8 -8 13 -8 5 0 35 -19 66 -43 180 -135 515 -299 699 -342 10 -2 39 -9 64 -16
62 -15 63 -15 170 -30 143 -20 554 -17 680 5 14 3 52 7 85 11 33 3 85 10 115
15 30 5 71 12 90 15 19 3 55 11 80 16 25 6 65 12 89 15 24 2 54 10 66 18 12 8
44 21 71 29 27 9 67 25 89 36 21 12 47 21 56 21 9 0 27 8 40 19 31 23 159 91
173 91 6 0 25 12 41 26 17 14 44 32 61 39 17 7 39 24 50 37 11 14 30 29 43 33
12 4 35 19 49 34 15 15 48 39 73 54 25 14 80 60 121 101 42 42 80 76 85 76 6
0 14 10 20 23 6 13 27 34 46 47 20 14 48 43 62 66 15 23 38 52 51 65 13 12 24
29 24 36 0 8 13 25 29 39 16 14 35 40 41 59 6 19 16 35 21 35 5 0 22 26 37 58
16 31 49 93 73 137 24 44 57 109 73 145 15 36 34 79 41 95 11 26 37 99 40 115
1 3 7 25 15 50 7 25 14 50 16 55 1 6 12 46 23 91 12 45 23 94 26 110 2 16 9
62 15 103 8 50 10 167 7 360 -5 299 -10 341 -62 551 -14 57 -23 106 -20 108 3
3 -6 24 -20 48 -13 23 -26 56 -27 73 -1 17 -6 31 -10 31 -13 0 -37 44 -43 80
-3 19 -16 51 -29 70 -12 19 -26 47 -30 63 -3 15 -16 37 -28 49 -11 11 -26 37
-32 57 -13 38 -37 83 -73 135 -12 17 -38 54 -56 81 -19 28 -46 61 -61 74 -14
14 -26 30 -26 36 0 6 -17 29 -37 51 -21 23 -49 55 -62 72 -13 18 -29 32 -37
32 -7 0 -21 14 -31 30 -9 17 -21 30 -25 30 -4 0 -35 27 -68 60 -33 33 -66 60
-72 60 -7 0 -31 19 -53 43 -46 46 -124 107 -152 118 -10 4 -29 19 -42 33 -14
14 -32 26 -42 26 -27 0 -49 11 -49 25 0 11 -45 36 -75 41 -5 1 -55 23 -110 49
-253 119 -480 189 -710 220 -52 7 -500 17 -506 11z"/>
</g>
</svg>
